<?xml version="1.0" standalone="no"?>
<!DOCTYPE svg PUBLIC "-//W3C//DTD SVG 20010904//EN"
 "http://www.w3.org/TR/2001/REC-SVG-20010904/DTD/svg10.dtd">
<svg version="1.0" xmlns="http://www.w3.org/2000/svg"
 width="605.000000pt" height="605.000000pt" viewBox="0 0 605.000000 605.000000"
 preserveAspectRatio="xMidYMid meet">
<metadata>
Created by potrace 1.14, written by Peter Selinger 2001-2017
</metadata>
<g transform="translate(0.000000,605.000000) scale(0.100000,-0.100000)"
fill="#000000" stroke="none">
<path d="M2359 5038 c-6 -24 -40 -151 -74 -282 -34 -132 -67 -242 -73 -244 -6
-2 -146 45 -312 103 -166 59 -304 104 -307 101 -6 -6 55 -212 99 -339 12 -31
19 -59 17 -61 -2 -2 -42 -20 -88 -40 -212 -93 -346 -199 -415 -330 -37 -70
-37 -180 0 -254 136 -274 670 -488 1404 -564 165 -17 744 -17 910 0 430 45
782 133 1045 262 253 125 385 270 385 424 0 72 -15 116 -60 184 -66 98 -201
197 -380 277 -47 21 -86 39 -88 40 -2 2 24 92 58 200 34 108 60 199 57 202 -5
4 -596 -200 -619 -213 -8 -5 -11 3 -93 324 -35 134 -65 246 -68 248 -3 3 -160
-33 -349 -81 l-344 -86 -342 86 c-188 47 -344 85 -347 85 -2 0 -10 -19 -16
-42z m-321 -763 c50 -48 92 -96 92 -106 0 -21 -98 -400 -105 -407 -3 -3 -6 -3
-8 -1 -3 4 -241 720 -252 759 -5 18 18 1 86 -65 52 -50 136 -131 187 -180z
m2197 -146 c-70 -209 -129 -379 -130 -377 -2 2 -28 98 -59 215 l-55 211 97 94
c53 51 135 130 182 175 47 45 86 78 88 73 2 -6 -53 -181 -123 -391z"/>
<path d="M1300 3341 c0 -4 61 -67 135 -140 l135 -133 -78 -62 c-44 -33 -120
-92 -170 -131 -50 -38 -91 -73 -92 -76 0 -3 191 -196 425 -428 234 -231 425
-425 425 -429 0 -5 -34 -32 -75 -60 -41 -29 -77 -56 -80 -61 -6 -10 1118
-1125 1138 -1128 6 -2 268 251 581 560 l570 563 -88 63 -87 63 430 425 c237
234 431 428 431 431 -1 4 -69 59 -151 122 -83 63 -160 122 -172 131 -20 17
-19 19 116 151 75 74 137 137 137 140 0 7 -69 -24 -387 -175 -120 -57 -246
-116 -280 -132 -35 -15 -63 -31 -63 -34 0 -4 72 -72 160 -151 88 -79 158 -145
155 -148 -6 -6 -335 -72 -362 -72 -16 0 -67 -54 -195 -207 -198 -236 -183
-234 -176 -28 4 112 6 124 36 183 41 78 28 73 -79 -30 l-77 -73 -16 -95 c-9
-52 -25 -152 -35 -221 -30 -197 -31 -198 -133 -307 -50 -53 -101 -113 -113
-133 -34 -52 -83 -69 -203 -69 -114 0 -170 20 -201 71 -11 18 -61 76 -110 130
-90 96 -91 98 -111 181 -10 46 -26 135 -35 198 -33 246 -31 238 -99 305 -34
33 -76 71 -93 83 l-32 23 31 -68 c29 -62 33 -78 36 -188 7 -194 19 -196 -162
20 -87 105 -164 196 -171 203 -7 8 -99 31 -204 51 -105 21 -193 40 -196 43 -3
3 66 70 154 149 124 111 157 147 148 156 -7 6 -75 41 -152 76 -77 36 -185 86
-240 112 -278 132 -325 153 -325 146z"/>
<path d="M2120 3132 c0 -5 28 -41 61 -81 153 -181 403 -323 545 -308 66 7 105
27 169 88 62 58 92 71 170 71 78 0 105 -11 168 -71 65 -61 105 -81 171 -88
107 -11 285 71 444 205 55 46 168 179 160 187 -2 3 -72 -6 -154 -20 -316 -53
-406 -59 -789 -59 -383 0 -484 7 -794 60 -168 28 -151 26 -151 16z"/>
<path d="M2830 2034 c-16 -14 -30 -30 -30 -35 0 -16 154 -141 199 -161 81 -37
147 -11 276 107 l60 55 -32 30 -32 29 -205 0 -206 0 -30 -25z"/>
</g>
</svg>
